<svg fill="none"
  xmlns="http://www.w3.org/2000/svg" viewBox="0 0 512 512">
  <path fill-rule="evenodd" clip-rule="evenodd" d="M192.35 181.523c36.055 0 65.349 42.815 65.349 94.644 0 51.83-29.294 94.645-65.349 94.645-36.055 0-65.35-42.815-65.35-94.645 0-51.829 29.295-94.644 65.35-94.644zm2.253 180.275c-27.041-51.829 33.802-99.151 0-171.261 13.521 103.658-40.562 114.925 0 171.261z" fill="#72240B"/>
  <path fill-rule="evenodd" clip-rule="evenodd" d="M262.206 240.113c69.857-11.268 155.487 90.137 108.165 141.966-36.055 38.308-101.404 4.507-128.446-29.295 15.774-20.281 24.788-47.322 24.788-69.856 49.576 47.322 38.308 85.63 99.151 92.391-47.322-11.267-49.575-69.857-99.151-103.658 0-11.268-2.253-22.535-4.507-31.548z" fill="#72240B"/>
  <path fill-rule="evenodd" clip-rule="evenodd" d="M343.33 120.68c20.281 15.774 18.027 54.083-6.76 81.124-22.535 29.295-58.59 38.309-78.871 22.534-20.281-15.774-18.027-54.082 6.761-81.123 22.534-29.295 58.589-38.309 78.87-22.535zm-81.124 101.405c9.014-40.562 63.096-38.308 78.87-96.898-38.308 63.097-74.363 45.069-78.87 96.898z" fill="#72240B"/>
  <path fill-rule="evenodd" clip-rule="evenodd" d="M296.128 74.823l96.574 55.759a42.177 42.177 0 019.5-7.517c20.029-11.514 45.575-4.677 57.209 15.352 11.514 20.029 4.677 45.576-15.352 57.209a41.939 41.939 0 01-11.154 4.442v111.561a41.962 41.962 0 0111.034 4.413c20.149 11.634 26.986 37.18 15.352 57.209-11.514 20.029-37.18 26.866-57.209 15.352a41.569 41.569 0 01-10.354-8.404l-95.985 55.419a41.92 41.92 0 012.115 13.193c0 23.027-18.71 41.857-41.858 41.857-23.148 0-41.858-18.71-41.858-41.857 0-4.115.592-8.089 1.694-11.843l-96.549-55.744a42.166 42.166 0 01-9.369 7.379c-20.149 11.514-45.695 4.677-57.209-15.352-11.514-20.029-4.678-45.575 15.352-57.209a41.974 41.974 0 0111.034-4.415V200.068a41.944 41.944 0 01-11.154-4.442c-20.03-11.513-26.866-37.18-15.352-57.209 11.514-20.029 37.18-26.866 57.209-15.352a42.162 42.162 0 019.455 7.47l96.601-55.774a41.963 41.963 0 01-1.712-11.903C214.142 39.71 232.852 21 256 21c23.148 0 41.858 18.71 41.858 41.858 0 4.159-.605 8.175-1.73 11.965zm-10.062 17.18l96.804 55.891c-2.992 10.51-1.894 22.163 3.98 32.381 5.892 10.25 15.492 17.046 26.146 19.694V311.67c-.543.133-1.083.277-1.62.432L284.942 93.119a42.11 42.11 0 001.124-1.116zm-58.982 1.141L100.653 312.123a42.359 42.359 0 00-1.649-.442V199.969c10.654-2.648 20.254-9.444 26.146-19.694 5.885-10.238 6.976-21.917 3.962-32.443l96.777-55.876c.39.404.789.8 1.195 1.188zm40.611 9.921l126.403 218.929a41.605 41.605 0 00-7.368 9.4 41.948 41.948 0 00-4.413 11.034H129.685a41.968 41.968 0 00-4.415-11.034 42.159 42.159 0 00-7.357-9.348L244.34 103.075a41.984 41.984 0 0011.66 1.64c4.061 0 7.985-.576 11.695-1.65zm19.26 317.546l96.176-55.529a42.003 42.003 0 01-.773-2.745H129.631a40.612 40.612 0 01-.434 1.619l96.648 55.802c7.61-7.898 18.3-12.805 30.155-12.805 12.276 0 23.304 5.262 30.955 13.658z" fill="#E535AB"/>
</svg>
